<svg width="31" height="16" viewBox="0 0 31 16" fill="none" xmlns="http://www.w3.org/2000/svg">
<path d="M30.0313 0C30.2882 0 30.5346 0.0936507 30.7163 0.26035C30.8979 0.427049 31 0.653141 31 0.888889V15.1111C31 15.3469 30.8979 15.573 30.7163 15.7397C30.5346 15.9063 30.2882 16 30.0313 16C29.7743 16 29.5279 15.9063 29.3462 15.7397C29.1646 15.573 29.0625 15.3469 29.0625 15.1111V9.33689L16.9202 15.8009C15.9127 16.3378 14.5313 15.7244 14.5313 14.5636V9.33689L2.38894 15.8009C1.38144 16.3378 0 15.7244 0 14.5636V1.43644C0 0.275556 1.38144 -0.337778 2.38894 0.199111L14.5313 6.66311V1.43644C14.5313 0.275556 15.9127 -0.337778 16.9202 0.199111L29.0625 6.66311V0.888889C29.0625 0.653141 29.1646 0.427049 29.3462 0.26035C29.5279 0.0936507 29.7743 0 30.0313 0ZM1.9375 2.01422V13.9858L13.1827 8L1.9375 2.01422ZM16.4688 2.01422V13.9858L27.714 8L16.4688 2.01422Z" fill="#5B745C"/>
</svg>
