<svg width="31" height="16" viewBox="0 0 31 16" fill="none" xmlns="http://www.w3.org/2000/svg">
<path d="M0.96875 0C1.22568 0 1.47208 0.0936507 1.65376 0.26035C1.83544 0.427049 1.9375 0.653141 1.9375 0.888889V6.66311L14.0798 0.199111C15.0873 -0.337778 16.4688 0.275556 16.4688 1.43644V6.66311L28.6111 0.199111C29.6186 -0.337778 31 0.275556 31 1.43644V14.5636C31 15.7244 29.6186 16.3378 28.6111 15.8009L16.4688 9.33689V14.5636C16.4688 15.7244 15.0873 16.3378 14.0798 15.8009L1.9375 9.33689V15.1111C1.9375 15.3469 1.83544 15.573 1.65376 15.7397C1.47208 15.9063 1.22568 16 0.96875 16C0.711822 16 0.465416 15.9063 0.28374 15.7397C0.102064 15.573 0 15.3469 0 15.1111V0.888889C0 0.653141 0.102064 0.427049 0.28374 0.26035C0.465416 0.0936507 0.711822 0 0.96875 0ZM14.5313 2.01422L3.286 8L14.5313 13.9858V2.01422ZM29.0625 2.01422L17.8173 8L29.0625 13.9858V2.01422Z" fill="#5B745C"/>
</svg>
